<svg width="118" height="49" viewBox="0 0 118 49" fill="none" xmlns="http://www.w3.org/2000/svg">
<path d="M60.4048 18.0909H53.3949C53.3452 17.5109 53.2126 16.9847 52.9972 16.5124C52.79 16.0401 52.5 15.6341 52.1271 15.2944C51.7625 14.9464 51.3192 14.6812 50.7972 14.4989C50.2752 14.3084 49.6828 14.2131 49.0199 14.2131C47.8598 14.2131 46.878 14.4948 46.0742 15.0582C45.2788 15.6217 44.6739 16.4296 44.2596 17.4819C43.8536 18.5342 43.6506 19.7978 43.6506 21.2727C43.6506 22.8305 43.8577 24.1355 44.272 25.1879C44.6946 26.2319 45.3036 27.0191 46.0991 27.5494C46.8945 28.0714 47.8516 28.3324 48.9702 28.3324C49.6082 28.3324 50.1799 28.2537 50.6854 28.0962C51.1908 27.9305 51.63 27.6944 52.0028 27.3878C52.3757 27.0812 52.6781 26.7125 52.9102 26.2816C53.1505 25.8424 53.312 25.3494 53.3949 24.8026L60.4048 24.8523C60.322 25.9295 60.0195 27.0273 59.4975 28.146C58.9755 29.2563 58.2339 30.2837 57.2727 31.2283C56.3198 32.1647 55.1391 32.9187 53.7305 33.4904C52.3219 34.0621 50.6854 34.348 48.821 34.348C46.4844 34.348 44.388 33.8467 42.532 32.8441C40.6842 31.8415 39.2217 30.3666 38.1445 28.4194C37.0756 26.4722 36.5412 24.09 36.5412 21.2727C36.5412 18.4389 37.0881 16.0526 38.1818 14.1136C39.2756 12.1664 40.7505 10.6957 42.6065 9.70135C44.4626 8.69874 46.5341 8.19744 48.821 8.19744C50.4285 8.19744 51.9076 8.41702 53.2582 8.85618C54.6088 9.29534 55.7937 9.9375 56.8129 10.7827C57.832 11.6196 58.6523 12.6512 59.2738 13.8775C59.8952 15.1038 60.2723 16.5083 60.4048 18.0909ZM63.54 34V8.54545H74.5273C76.4165 8.54545 78.0695 8.88932 79.4864 9.57706C80.9033 10.2648 82.0054 11.255 82.7925 12.5476C83.5797 13.8402 83.9733 15.3897 83.9733 17.196C83.9733 19.0189 83.5673 20.556 82.7552 21.8072C81.9515 23.0584 80.8205 24.003 79.3621 24.641C77.9121 25.279 76.2176 25.598 74.2787 25.598H67.7162V20.2287H72.8866C73.6987 20.2287 74.3905 20.1293 74.9623 19.9304C75.5423 19.7232 75.9856 19.396 76.2922 18.9485C76.607 18.5011 76.7645 17.9169 76.7645 17.196C76.7645 16.4669 76.607 15.8744 76.2922 15.4187C75.9856 14.9547 75.5423 14.6149 74.9623 14.3995C74.3905 14.1758 73.6987 14.0639 72.8866 14.0639H70.4506V34H63.54ZM78.4548 22.3168L84.8184 34H77.3113L71.0969 22.3168H78.4548ZM86.9189 8.54545H95.5198L101.436 22.9631H101.734L107.65 8.54545H116.251V34H109.49V19.2841H109.291L103.623 33.8011H99.5468L93.8792 19.1847H93.6803V34H86.9189V8.54545Z" fill="#323232"/>
<path d="M43.0966 46H40.9659V38.7273H43.2244C43.9181 38.7273 44.5111 38.8717 45.0036 39.1605C45.4983 39.4493 45.8771 39.8636 46.1399 40.4034C46.4027 40.9432 46.5341 41.5907 46.5341 42.3459C46.5341 43.1082 46.3991 43.7628 46.1293 44.3097C45.8617 44.8542 45.4711 45.272 44.9574 45.5632C44.446 45.8544 43.8258 46 43.0966 46ZM41.63 45.4034H43.0575C43.6825 45.4034 44.2057 45.2803 44.6271 45.0341C45.0485 44.7879 45.3646 44.4363 45.5753 43.9794C45.786 43.5225 45.8913 42.978 45.8913 42.3459C45.889 41.7185 45.7848 41.1787 45.5788 40.7266C45.3752 40.2744 45.0722 39.9276 44.6697 39.6861C44.2696 39.4446 43.7749 39.3239 43.1854 39.3239H41.63V45.4034ZM52.4175 46.1136C51.9085 46.1136 51.4682 45.9953 51.0965 45.7585C50.7248 45.5194 50.4372 45.1892 50.2336 44.7678C50.0323 44.344 49.9317 43.8563 49.9317 43.3047C49.9317 42.7554 50.0323 42.2678 50.2336 41.8416C50.4372 41.4131 50.7177 41.0781 51.0752 40.8366C51.435 40.5928 51.8505 40.4709 52.3216 40.4709C52.6176 40.4709 52.9028 40.5253 53.1775 40.6342C53.4521 40.7408 53.6983 40.9053 53.9161 41.1278C54.1363 41.348 54.3103 41.6262 54.4381 41.9624C54.5659 42.2962 54.6299 42.6915 54.6299 43.1484V43.4609H50.3685V42.9034H53.9836C53.9836 42.553 53.9125 42.2382 53.7705 41.9588C53.6308 41.6771 53.4355 41.4545 53.1846 41.2912C52.936 41.1278 52.6483 41.0462 52.3216 41.0462C51.976 41.0462 51.6718 41.1385 51.409 41.3232C51.1462 41.5078 50.9402 41.7517 50.7911 42.0547C50.6443 42.3577 50.5697 42.6892 50.5674 43.049V43.3828C50.5674 43.8161 50.6419 44.1948 50.7911 44.5192C50.9426 44.8411 51.1569 45.0909 51.4338 45.2685C51.7108 45.446 52.0387 45.5348 52.4175 45.5348C52.6756 45.5348 52.9016 45.4946 53.0958 45.4141C53.2923 45.3336 53.4568 45.2259 53.5894 45.0909C53.7243 44.9536 53.8261 44.8033 53.8948 44.6399L54.4949 44.8352C54.4121 45.0649 54.2759 45.2768 54.0865 45.4709C53.8995 45.665 53.6651 45.8213 53.3834 45.9396C53.1041 46.0556 52.7821 46.1136 52.4175 46.1136ZM62.2791 40.5455L60.2869 46H59.6122L57.62 40.5455H58.3054L59.9247 45.1655H59.9744L61.5937 40.5455H62.2791ZM67.7257 46.1136C67.2167 46.1136 66.7764 45.9953 66.4047 45.7585C66.033 45.5194 65.7454 45.1892 65.5418 44.7678C65.3405 44.344 65.2399 43.8563 65.2399 43.3047C65.2399 42.7554 65.3405 42.2678 65.5418 41.8416C65.7454 41.4131 66.0259 41.0781 66.3834 40.8366C66.7432 40.5928 67.1587 40.4709 67.6298 40.4709C67.9258 40.4709 68.211 40.5253 68.4857 40.6342C68.7603 40.7408 69.0065 40.9053 69.2243 41.1278C69.4445 41.348 69.6185 41.6262 69.7463 41.9624C69.8741 42.2962 69.9381 42.6915 69.9381 43.1484V43.4609H65.6767V42.9034H69.2918C69.2918 42.553 69.2207 42.2382 69.0787 41.9588C68.939 41.6771 68.7437 41.4545 68.4928 41.2912C68.2442 41.1278 67.9565 41.0462 67.6298 41.0462C67.2842 41.0462 66.98 41.1385 66.7172 41.3232C66.4544 41.5078 66.2484 41.7517 66.0993 42.0547C65.9525 42.3577 65.8779 42.6892 65.8756 43.049V43.3828C65.8756 43.8161 65.9501 44.1948 66.0993 44.5192C66.2508 44.8411 66.4651 45.0909 66.742 45.2685C67.019 45.446 67.3469 45.5348 67.7257 45.5348C67.9838 45.5348 68.2098 45.4946 68.404 45.4141C68.6005 45.3336 68.765 45.2259 68.8976 45.0909C69.0325 44.9536 69.1343 44.8033 69.203 44.6399L69.8031 44.8352C69.7203 45.0649 69.5841 45.2768 69.3947 45.4709C69.2077 45.665 68.9733 45.8213 68.6916 45.9396C68.4123 46.0556 68.0903 46.1136 67.7257 46.1136ZM74.1631 38.7273V46H73.531V38.7273H74.1631ZM80.1557 46.1136C79.6846 46.1136 79.2679 45.9941 78.9057 45.755C78.5459 45.5159 78.2641 45.1856 78.0605 44.7642C77.8569 44.3404 77.7551 43.8516 77.7551 43.2976C77.7551 42.7389 77.8569 42.2476 78.0605 41.8239C78.2641 41.3977 78.5459 41.0663 78.9057 40.8295C79.2679 40.5904 79.6846 40.4709 80.1557 40.4709C80.6268 40.4709 81.0423 40.5904 81.4022 40.8295C81.762 41.0687 82.0437 41.4001 82.2473 41.8239C82.4533 42.2476 82.5563 42.7389 82.5563 43.2976C82.5563 43.8516 82.4545 44.3404 82.2509 44.7642C82.0473 45.1856 81.7644 45.5159 81.4022 45.755C81.0423 45.9941 80.6268 46.1136 80.1557 46.1136ZM80.1557 45.5348C80.5345 45.5348 80.8553 45.433 81.1181 45.2294C81.3809 45.0258 81.5797 44.7547 81.7147 44.4162C81.852 44.0777 81.9206 43.7048 81.9206 43.2976C81.9206 42.8904 81.852 42.5163 81.7147 42.1754C81.5797 41.8345 81.3809 41.5611 81.1181 41.3551C80.8553 41.1491 80.5345 41.0462 80.1557 41.0462C79.7793 41.0462 79.4585 41.1491 79.1934 41.3551C78.9306 41.5611 78.7305 41.8345 78.5932 42.1754C78.4583 42.5163 78.3908 42.8904 78.3908 43.2976C78.3908 43.7048 78.4583 44.0777 78.5932 44.4162C78.7305 44.7547 78.9306 45.0258 79.1934 45.2294C79.4561 45.433 79.7769 45.5348 80.1557 45.5348ZM86.1439 48.0455V40.5455H86.7582V41.5859H86.8328C86.9086 41.4226 87.0127 41.2557 87.1453 41.0852C87.2779 40.9124 87.4531 40.7668 87.6709 40.6484C87.8911 40.5301 88.168 40.4709 88.5018 40.4709C88.9517 40.4709 89.3447 40.5893 89.6808 40.826C90.0194 41.0604 90.2822 41.3894 90.4692 41.8132C90.6586 42.2346 90.7533 42.7259 90.7533 43.2869C90.7533 43.8504 90.6586 44.344 90.4692 44.7678C90.2822 45.1915 90.0194 45.5218 89.6808 45.7585C89.3447 45.9953 88.954 46.1136 88.5089 46.1136C88.1799 46.1136 87.9041 46.0545 87.6815 45.9361C87.4614 45.8177 87.2826 45.6721 87.1453 45.4993C87.0104 45.3241 86.9062 45.1536 86.8328 44.9879H86.776V48.0455H86.1439ZM86.7689 43.2763C86.7689 43.7166 86.834 44.1072 86.9642 44.4482C87.0968 44.7867 87.2862 45.053 87.5324 45.2472C87.781 45.4389 88.0816 45.5348 88.4344 45.5348C88.7966 45.5348 89.102 45.4354 89.3506 45.2365C89.6015 45.0353 89.7921 44.7642 89.9223 44.4233C90.0549 44.0824 90.1212 43.7 90.1212 43.2763C90.1212 42.8572 90.0561 42.4796 89.9259 42.1435C89.798 41.8073 89.6086 41.541 89.3577 41.3445C89.1067 41.1456 88.799 41.0462 88.4344 41.0462C88.0793 41.0462 87.7774 41.142 87.5288 41.3338C87.2803 41.5232 87.0909 41.786 86.9607 42.1222C86.8328 42.456 86.7689 42.8407 86.7689 43.2763ZM96.5452 46.1136C96.0362 46.1136 95.5959 45.9953 95.2242 45.7585C94.8525 45.5194 94.5649 45.1892 94.3613 44.7678C94.1601 44.344 94.0594 43.8563 94.0594 43.3047C94.0594 42.7554 94.1601 42.2678 94.3613 41.8416C94.5649 41.4131 94.8454 41.0781 95.2029 40.8366C95.5628 40.5928 95.9782 40.4709 96.4494 40.4709C96.7453 40.4709 97.0306 40.5253 97.3052 40.6342C97.5798 40.7408 97.826 40.9053 98.0438 41.1278C98.264 41.348 98.438 41.6262 98.5658 41.9624C98.6937 42.2962 98.7576 42.6915 98.7576 43.1484V43.4609H94.4962V42.9034H98.1113C98.1113 42.553 98.0403 42.2382 97.8982 41.9588C97.7585 41.6771 97.5632 41.4545 97.3123 41.2912C97.0637 41.1278 96.7761 41.0462 96.4494 41.0462C96.1037 41.0462 95.7995 41.1385 95.5367 41.3232C95.2739 41.5078 95.068 41.7517 94.9188 42.0547C94.772 42.3577 94.6975 42.6892 94.6951 43.049V43.3828C94.6951 43.8161 94.7697 44.1948 94.9188 44.5192C95.0703 44.8411 95.2846 45.0909 95.5616 45.2685C95.8386 45.446 96.1665 45.5348 96.5452 45.5348C96.8033 45.5348 97.0294 45.4946 97.2235 45.4141C97.42 45.3336 97.5845 45.2259 97.7171 45.0909C97.8521 44.9536 97.9539 44.8033 98.0225 44.6399L98.6227 44.8352C98.5398 45.0649 98.4037 45.2768 98.2143 45.4709C98.0273 45.665 97.7929 45.8213 97.5112 45.9396C97.2318 46.0556 96.9098 46.1136 96.5452 46.1136ZM102.351 46V40.5455H102.965V41.3835H103.011C103.12 41.1089 103.309 40.8875 103.579 40.7195C103.851 40.549 104.159 40.4638 104.503 40.4638C104.555 40.4638 104.613 40.465 104.677 40.4673C104.74 40.4697 104.794 40.4721 104.836 40.4744V41.1172C104.808 41.1125 104.758 41.1054 104.687 41.0959C104.616 41.0864 104.539 41.0817 104.456 41.0817C104.172 41.0817 103.919 41.142 103.696 41.2628C103.476 41.3812 103.302 41.5457 103.174 41.7564C103.047 41.9671 102.983 42.2074 102.983 42.4773V46H102.351ZM111.78 41.7422L111.201 41.9055C111.144 41.7422 111.064 41.5942 110.959 41.4616C110.855 41.3291 110.719 41.2237 110.551 41.1456C110.385 41.0675 110.179 41.0284 109.933 41.0284C109.564 41.0284 109.261 41.116 109.024 41.2912C108.787 41.4664 108.669 41.6925 108.669 41.9695C108.669 42.2038 108.749 42.3944 108.91 42.5412C109.074 42.6856 109.325 42.8004 109.663 42.8857L110.487 43.0881C110.944 43.1993 111.286 43.3757 111.513 43.6172C111.743 43.8587 111.858 44.1617 111.858 44.5263C111.858 44.834 111.773 45.1075 111.602 45.3466C111.432 45.5857 111.194 45.7739 110.888 45.9112C110.585 46.0462 110.234 46.1136 109.834 46.1136C109.301 46.1136 108.862 45.9941 108.516 45.755C108.171 45.5135 107.949 45.1655 107.852 44.7109L108.459 44.5618C108.538 44.8861 108.69 45.1312 108.918 45.2969C109.147 45.4626 109.449 45.5455 109.823 45.5455C110.242 45.5455 110.577 45.4519 110.828 45.2649C111.079 45.0755 111.204 44.8388 111.204 44.5547C111.204 44.3345 111.131 44.1499 110.984 44.0007C110.838 43.8492 110.615 43.7379 110.317 43.6669L109.425 43.4538C108.952 43.3402 108.601 43.1603 108.374 42.9141C108.147 42.6679 108.033 42.3625 108.033 41.9979C108.033 41.6972 108.115 41.4332 108.278 41.206C108.442 40.9763 108.667 40.7964 108.953 40.6662C109.24 40.536 109.566 40.4709 109.933 40.4709C110.433 40.4709 110.832 40.5845 111.13 40.8118C111.431 41.0367 111.647 41.3468 111.78 41.7422Z" fill="#323232"/>
<rect y="3" width="15" height="37" rx="5" fill="#35C4CD"/>
<g filter="url(#filter0_d_10_257)">
<circle cx="18" cy="12" r="9" fill="#35C4CD"/>
</g>
<path d="M17.5068 24.6629C17.4787 23.4308 18.5609 22.4668 19.7815 22.6364L31.6987 24.2921C33.3878 24.5267 34.0272 26.632 32.7539 27.7664L21.1109 38.1392C19.8376 39.2736 17.8199 38.3963 17.781 36.6915L17.5068 24.6629Z" fill="#35C4CD"/>
<defs>
<filter id="filter0_d_10_257" x="5" y="3" width="26" height="26" filterUnits="userSpaceOnUse" color-interpolation-filters="sRGB">
<feFlood flood-opacity="0" result="BackgroundImageFix"/>
<feColorMatrix in="SourceAlpha" type="matrix" values="0 0 0 0 0 0 0 0 0 0 0 0 0 0 0 0 0 0 127 0" result="hardAlpha"/>
<feOffset dy="4"/>
<feGaussianBlur stdDeviation="2"/>
<feComposite in2="hardAlpha" operator="out"/>
<feColorMatrix type="matrix" values="0 0 0 0 0 0 0 0 0 0 0 0 0 0 0 0 0 0 0.25 0"/>
<feBlend mode="normal" in2="BackgroundImageFix" result="effect1_dropShadow_10_257"/>
<feBlend mode="normal" in="SourceGraphic" in2="effect1_dropShadow_10_257" result="shape"/>
</filter>
</defs>
</svg>
